<svg id="visual" viewBox="0 0 900 600" width="900" height="600" xmlns="http://www.w3.org/2000/svg" xmlns:xlink="http://www.w3.org/1999/xlink" version="1.1"><rect width="900" height="600" fill="#001829"></rect><g><g transform="translate(35 155)"><path d="M0 -57.1L49.4 -28.5L49.4 28.5L0 57.1L-49.4 28.5L-49.4 -28.5Z" fill="#297EA6"></path></g><g transform="translate(865 576)"><path d="M0 -40L34.6 -20L34.6 20L0 40L-34.6 20L-34.6 -20Z" fill="#297EA6"></path></g><g transform="translate(329 502)"><path d="M0 -55L47.6 -27.5L47.6 27.5L0 55L-47.6 27.5L-47.6 -27.5Z" fill="#297EA6"></path></g><g transform="translate(313 72)"><path d="M0 -35L30.3 -17.5L30.3 17.5L0 35L-30.3 17.5L-30.3 -17.5Z" fill="#297EA6"></path></g><g transform="translate(527 349)"><path d="M0 -53L45.9 -26.5L45.9 26.5L0 53L-45.9 26.5L-45.9 -26.5Z" fill="#297EA6"></path></g><g transform="translate(189 225)"><path d="M0 -48L41.6 -24L41.6 24L0 48L-41.6 24L-41.6 -24Z" fill="#297EA6"></path></g><g transform="translate(897 400)"><path d="M0 -37L32 -18.5L32 18.5L0 37L-32 18.5L-32 -18.5Z" fill="#297EA6"></path></g><g transform="translate(737 223)"><path d="M0 -32L27.7 -16L27.7 16L0 32L-27.7 16L-27.7 -16Z" fill="#297EA6"></path></g><g transform="translate(807 14)"><path d="M0 -33L28.6 -16.5L28.6 16.5L0 33L-28.6 16.5L-28.6 -16.5Z" fill="#297EA6"></path></g><g transform="translate(629 435)"><path d="M0 -46L39.8 -23L39.8 23L0 46L-39.8 23L-39.8 -23Z" fill="#297EA6"></path></g></g></svg>